<svg xmlns="http://www.w3.org/2000/svg" width="19" height="9.486" viewBox="0 0 19 9.486">
  <path id="Tracé_718" data-name="Tracé 718" d="M18.335,4.126a.791.791,0,0,0-.137-.01L2.456,3.956l.17-.079a1.583,1.583,0,0,0,.447-.317L5.261,1.373A.819.819,0,0,0,5.376.324a.791.791,0,0,0-1.187-.1L.232,4.178a.791.791,0,0,0,0,1.119h0L4.189,9.255a.791.791,0,0,0,1.187-.079.819.819,0,0,0-.115-1.049L3.077,5.935a1.583,1.583,0,0,0-.4-.289l-.237-.107,15.711.16a.819.819,0,0,0,.835-.665A.791.791,0,0,0,18.335,4.126Z" fill="#fff"/>
</svg>
