<svg id="bell" xmlns="http://www.w3.org/2000/svg" width="16.956" height="18.365" viewBox="0 0 16.956 18.365">
  <path id="Tracé_291" data-name="Tracé 291" d="M39.288,16.813v.207h0v-.207c-.47,0-.638-.278-.757-.725a11.226,11.226,0,0,1-.172-2.458c0-.244,0-.477,0-.7a9.511,9.511,0,0,0-.216-2.6.468.468,0,0,0-.91.223,8.719,8.719,0,0,1,.19,2.369c0,.228-.006.463,0,.716a11.7,11.7,0,0,0,.2,2.689,2.693,2.693,0,0,0,.177.485H27.627a2.694,2.694,0,0,0,.177-.485,11.711,11.711,0,0,0,.2-2.693,11.174,11.174,0,0,1,.625-4.5c.666-1.413,2-2.1,4.082-2.1a5.379,5.379,0,0,1,2.789.636,3.314,3.314,0,0,1,1.34,1.569.468.468,0,0,0,.858-.377A4.277,4.277,0,0,0,35.988,6.87a5.1,5.1,0,0,0-1.532-.594,1.766,1.766,0,0,0-3.483,0,5.141,5.141,0,0,0-1.465.554,4.24,4.24,0,0,0-1.723,1.906,11.839,11.839,0,0,0-.715,4.895,11.215,11.215,0,0,1-.172,2.456c-.119.448-.287.725-.758.725a1.741,1.741,0,0,0,0,3.483H27.2a.468.468,0,1,0,0-.937H26.14a.8.8,0,1,1,0-1.609H39.288a.8.8,0,0,1,0,1.609H28.844a.468.468,0,0,0,0,.937h.892a3.014,3.014,0,0,0,5.955,0h3.6a1.741,1.741,0,0,0,0-3.483ZM34.738,20.3a2.078,2.078,0,0,1-4.048,0Z" transform="translate(-24.236 -4.639)" fill="#0095D1"/>
  <path id="Tracé_292" data-name="Tracé 292" d="M28.377,18.667a3.181,3.181,0,0,1-3.113-2.546h-.756a.631.631,0,0,1,0-1.262H34.951a.642.642,0,0,0,0-1.284H21.8a.642.642,0,1,0,0,1.284h1.062a.631.631,0,1,1,0,1.262H21.8a1.9,1.9,0,0,1,0-3.808c.333,0,.479-.147.6-.6a11.142,11.142,0,0,0,.167-2.415,11.96,11.96,0,0,1,.73-4.963,4.4,4.4,0,0,1,1.788-1.978A5.24,5.24,0,0,1,26.5,1.8a1.928,1.928,0,0,1,3.761,0,5.2,5.2,0,0,1,1.477.59,4.437,4.437,0,0,1,1.778,2.068.631.631,0,1,1-1.155.507,3.157,3.157,0,0,0-1.275-1.5,5.224,5.224,0,0,0-2.705-.612c-2.011,0-3.3.656-3.934,2.006a11.064,11.064,0,0,0-.61,4.431,11.8,11.8,0,0,1-.209,2.733c-.026.1-.055.191-.089.28h9.684c-.033-.089-.063-.183-.089-.28a11.8,11.8,0,0,1-.209-2.73c0-.255,0-.491,0-.719a8.593,8.593,0,0,0-.185-2.328.631.631,0,0,1,1.226-.3,9.64,9.64,0,0,1,.221,2.638c0,.224-.006.456,0,.7a11.151,11.151,0,0,0,.167,2.417c.122.458.268.6.6.6h.162v.007a1.9,1.9,0,0,1-.161,3.8H31.49a3.181,3.181,0,0,1-3.113,2.546Zm-3.87-3.483a.306.306,0,0,0,0,.612h1.031l.022.137a2.852,2.852,0,0,0,5.634,0l.021-.137h3.735a1.579,1.579,0,0,0,.163-3.149v.036h-.325v-.055c-.48-.067-.647-.438-.753-.835a11.3,11.3,0,0,1-.178-2.5c0-.247,0-.48,0-.7a9.38,9.38,0,0,0-.212-2.557.306.306,0,1,0-.594.146,8.847,8.847,0,0,1,.195,2.41c0,.227-.006.462,0,.713a11.61,11.61,0,0,0,.2,2.649,2.544,2.544,0,0,0,.166.456l.113.234H23.03l.113-.234a2.539,2.539,0,0,0,.166-.456,11.618,11.618,0,0,0,.2-2.652,11.286,11.286,0,0,1,.641-4.568c.7-1.475,2.079-2.193,4.229-2.193A5.536,5.536,0,0,1,31.25,3.2a3.471,3.471,0,0,1,1.4,1.643.306.306,0,1,0,.56-.246,4.118,4.118,0,0,0-1.649-1.92A4.937,4.937,0,0,0,30.083,2.1l-.107-.024-.018-.108a1.6,1.6,0,0,0-3.162,0l-.018.108-.107.024a4.982,4.982,0,0,0-1.419.536A4.08,4.08,0,0,0,23.6,4.468a11.722,11.722,0,0,0-.7,4.826,11.293,11.293,0,0,1-.178,2.5c-.117.439-.309.846-.915.846a1.579,1.579,0,0,0,0,3.158h1.062a.306.306,0,1,0,0-.612H21.8a.967.967,0,1,1,0-1.935H34.951a.967.967,0,0,1,0,1.935Zm3.87,2.546a2.228,2.228,0,0,1-2.183-1.736l-.046-.2h4.457l-.046.2A2.228,2.228,0,0,1,28.377,17.73Zm-1.809-1.609a1.916,1.916,0,0,0,3.618,0Z" transform="translate(-19.899 -0.302)" fill="#0095D1"/>
</svg>
