<?xml version="1.0" encoding="utf-8"?>
<!-- Generator: Adobe Illustrator 25.0.1, SVG Export Plug-In . SVG Version: 6.00 Build 0)  -->
<svg version="1.1" id="Calque_1" xmlns="http://www.w3.org/2000/svg" xmlns:xlink="http://www.w3.org/1999/xlink" x="0px" y="0px"
	 viewBox="0 0 512 512" style="enable-background:new 0 0 512 512;" xml:space="preserve">
<style type="text/css">
	.st0{fill:#FFF;}
</style>
<path class="st0" d="M303,256.2L502.3,56.8c13-13,13-33.9,0-46.9c-13-13-33.9-13-46.9,0L256.1,209.3L56.7,9.9c-13-13-33.9-13-46.9,0
	c-13,13-13,33.9,0,46.9l199.3,199.3L9.8,455.5c-13,13-13,33.9,0,46.9c6.5,6.5,15,9.7,23.4,9.7s17-3.2,23.4-9.7l199.3-199.3
	l199.3,199.3c6.5,6.5,15,9.7,23.4,9.7c8.5,0,17-3.2,23.4-9.7c13-13,13-33.9,0-46.9L303,256.2z"/>
</svg>
