<?xml version="1.0" encoding="utf-8"?>
<!-- Generator: Adobe Illustrator 25.0.1, SVG Export Plug-In . SVG Version: 6.00 Build 0)  -->
<svg version="1.1" id="Calque_1" xmlns="http://www.w3.org/2000/svg" xmlns:xlink="http://www.w3.org/1999/xlink" x="0px" y="0px"
	 viewBox="0 0 512 512" style="enable-background:new 0 0 512 512;" xml:space="preserve">
<style type="text/css">
	.st0{fill:#FFFFFF;}
</style>
<path class="st0" d="M326.8,185.6c-6.6,0-12,5.4-12,12v226c0,6.6,5.4,12,12,12s12-5.4,12-12v-226
	C338.8,190.9,333.4,185.6,326.8,185.6z"/>
<path class="st0" d="M185.7,185.6c-6.6,0-12,5.4-12,12v226c0,6.6,5.4,12,12,12s12-5.4,12-12v-226
	C197.7,190.9,192.3,185.6,185.7,185.6z"/>
<path class="st0" d="M82.9,152.6v294.6c0,17.4,6.4,33.8,17.5,45.5c11.1,11.8,26.6,18.4,42.7,18.5h226.3c16.2,0,31.6-6.7,42.7-18.5
	c11.2-11.7,17.5-28.1,17.5-45.5V152.6c22.2-5.9,36.5-27.3,33.6-50.1c-3-22.7-22.4-39.8-45.3-39.8h-61.2V47.8
	c0.1-12.6-4.9-24.6-13.8-33.5c-8.9-8.9-21-13.8-33.6-13.7H203.2c-12.6-0.1-24.7,4.8-33.6,13.7c-8.9,8.9-13.9,21-13.8,33.5v14.9H94.6
	c-22.9,0-42.3,17-45.3,39.8C46.3,125.3,60.7,146.7,82.9,152.6z M369.4,487.3H143.1c-20.4,0-36.4-17.6-36.4-40.1V153.6h299v293.6
	C405.8,469.7,389.9,487.3,369.4,487.3z M179.7,47.8c-0.1-6.2,2.4-12.2,6.8-16.6c4.4-4.4,10.4-6.8,16.7-6.7h106.2
	c6.2-0.1,12.2,2.3,16.7,6.7c4.4,4.4,6.9,10.4,6.8,16.6v14.9H179.7V47.8z M94.6,86.7H418c11.9,0,21.5,9.6,21.5,21.5
	s-9.6,21.5-21.5,21.5H94.6c-11.9,0-21.5-9.6-21.5-21.5S82.7,86.7,94.6,86.7z"/>
<path class="st0" d="M256.3,185.6c-6.6,0-12,5.4-12,12v226c0,6.6,5.4,12,12,12c6.6,0,12-5.4,12-12v-226
	C268.2,190.9,262.9,185.6,256.3,185.6z"/>
</svg>
