<?xml version="1.0" encoding="utf-8"?>
<!-- Generator: Adobe Illustrator 25.0.1, SVG Export Plug-In . SVG Version: 6.00 Build 0)  -->
<svg version="1.1" id="Calque_1" xmlns="http://www.w3.org/2000/svg" xmlns:xlink="http://www.w3.org/1999/xlink" x="0px" y="0px"
	 viewBox="0 0 512 512" style="enable-background:new 0 0 512 512;" xml:space="preserve">
<style type="text/css">
	.st0{fill:#FFFFFF;}
</style>
<g>
	<path class="st0" d="M488.3,67.4H188.4c-8.2-24.5-31.4-42.2-58.6-42.2S79.3,42.9,71.1,67.4H24.3c-10.9,0-19.7,8.8-19.7,19.7
		s8.8,19.7,19.7,19.7h46.8c8.2,24.5,31.4,42.2,58.6,42.2s50.4-17.7,58.6-42.2h299.9c10.9,0,19.7-8.8,19.7-19.7
		S499.1,67.4,488.3,67.4z M129.7,109.6c-12.4,0-22.5-10.1-22.5-22.5s10.1-22.5,22.5-22.5c12.4,0,22.5,10.1,22.5,22.5
		C152.2,99.5,142.1,109.6,129.7,109.6z"/>
	<path class="st0" d="M488.3,236.2h-46.8c-8.2-24.5-31.4-42.2-58.6-42.2s-50.4,17.7-58.6,42.2H24.3c-10.9,0-19.7,8.8-19.7,19.7
		c0,10.9,8.8,19.7,19.7,19.7h299.9c8.2,24.5,31.4,42.2,58.6,42.2s50.4-17.7,58.6-42.2h46.8c10.9,0,19.7-8.8,19.7-19.7
		C508,245,499.1,236.2,488.3,236.2z M382.8,278.3c-12.4,0-22.5-10.1-22.5-22.5c0-12.4,10.1-22.5,22.5-22.5
		c12.4,0,22.5,10.1,22.5,22.5C405.3,268.3,395.2,278.3,382.8,278.3z"/>
	<path class="st0" d="M488.3,404.9H272.7c-8.2-24.5-31.4-42.2-58.6-42.2s-50.4,17.7-58.6,42.2H24.3c-10.9,0-19.7,8.8-19.7,19.7
		c0,10.9,8.8,19.7,19.7,19.7h131.2c8.2,24.5,31.4,42.2,58.6,42.2s50.4-17.7,58.6-42.2h215.5c10.9,0,19.7-8.8,19.7-19.7
		C508,413.7,499.1,404.9,488.3,404.9z M214.1,447.1c-12.4,0-22.5-10.1-22.5-22.5c0-12.4,10.1-22.5,22.5-22.5
		c12.4,0,22.5,10.1,22.5,22.5S226.5,447.1,214.1,447.1z"/>
</g>
</svg>
