<svg xmlns="http://www.w3.org/2000/svg" xmlns:xlink="http://www.w3.org/1999/xlink" width="263.859" height="127.328" viewBox="0 0 263.859 127.328">
  <defs>
    <linearGradient id="linear-gradient" y1="0.5" x2="1" y2="0.5" gradientUnits="objectBoundingBox">
      <stop offset="0" stop-color="#ffc444"/>
      <stop offset="0.996" stop-color="#f36f56"/>
    </linearGradient>
    <linearGradient id="linear-gradient-2" x1="0.382" y1="0.982" x2="0.555" y2="0.213" gradientUnits="objectBoundingBox">
      <stop offset="0" stop-color="#aa80f9"/>
      <stop offset="0.996" stop-color="#6165d7"/>
    </linearGradient>
    <linearGradient id="linear-gradient-3" y1="0.5" x2="1" y2="0.5" gradientUnits="objectBoundingBox">
      <stop offset="0" stop-color="#ff9085"/>
      <stop offset="1" stop-color="#fb6fbb"/>
    </linearGradient>
    <linearGradient id="linear-gradient-4" x1="0" y1="0.5" x2="1" y2="0.5" xlink:href="#linear-gradient-2"/>
    <linearGradient id="linear-gradient-5" x1="0.617" y1="-0.203" x2="0.322" y2="1.548" xlink:href="#linear-gradient"/>
    <linearGradient id="linear-gradient-8" x1="-18.648" y1="0.333" x2="-17.594" y2="0.333" gradientUnits="objectBoundingBox">
      <stop offset="0" stop-color="#40447e"/>
      <stop offset="0.996" stop-color="#3c3b6b"/>
    </linearGradient>
    <linearGradient id="linear-gradient-9" x1="-13.314" y1="0.727" x2="-12.065" y2="-0.038" gradientUnits="objectBoundingBox">
      <stop offset="0" stop-color="#311944"/>
      <stop offset="1" stop-color="#6b3976"/>
    </linearGradient>
  </defs>
  <g id="Groupe_704" data-name="Groupe 704" transform="translate(-4366.741 -15.012)">
    <g id="Groupe_691" data-name="Groupe 691" transform="translate(4366.741 84.687)">
      <path id="Tracé_803" data-name="Tracé 803" d="M4455.776,760.207l55.956-2.433,64.471,2.259-63.6,13.9Z" transform="translate(-4447.424 -757.774)" fill="url(#linear-gradient)"/>
      <g id="Groupe_688" data-name="Groupe 688" transform="translate(0 27.313)">
        <path id="Tracé_804" data-name="Tracé 804" d="M4420.178,1077.983l-45.325-12.2c-4.565-1.228-8.111-5.751-8.111-10.137v-.048c0-4.386,3.546-7.329,8.111-6.523l48.614,7.955Z" transform="translate(-4366.741 -1048.943)" fill="url(#linear-gradient-2)"/>
        <g id="Groupe_687" data-name="Groupe 687" transform="translate(45.293 2.416)">
          <path id="Tracé_805" data-name="Tracé 805" d="M4952.167,1100.672l-73.237,8.179a7.23,7.23,0,0,1-8.358-7.152v-3.029a9.09,9.09,0,0,1,8.358-8.751l73.237-5.829C4948.926,1090.122,4948.178,1095.766,4952.167,1100.672Z" transform="translate(-4868.603 -1083.208)" fill="url(#linear-gradient-3)"/>
          <path id="Tracé_806" data-name="Tracé 806" d="M4933.783,1092.972l-73.26,8.307c-5.983.678-10.941-3.512-10.941-9.354v-.064c0-5.842,4.958-10.981,10.941-11.448l73.26-5.714a.768.768,0,0,1,.8.82.931.931,0,0,1-.8.947l-73.26,5.964a9.6,9.6,0,0,0-8.788,9.225v.064a7.629,7.629,0,0,0,8.788,7.543l73.26-8.056a.74.74,0,0,1,.8.794A.968.968,0,0,1,4933.783,1092.972Z" transform="translate(-4849.582 -1074.696)" fill="url(#linear-gradient-4)"/>
        </g>
      </g>
      <g id="Groupe_690" data-name="Groupe 690" transform="translate(0 2.293)">
        <path id="Tracé_807" data-name="Tracé 807" d="M4422.082,815.958l-47.229-8c-4.565-.805-8.111-6.789-8.111-13.374v-.072c0-6.586,3.546-11.812,8.111-11.642l50.1,1.861Z" transform="translate(-4366.741 -782.801)" fill="url(#linear-gradient-5)"/>
        <g id="Groupe_689" data-name="Groupe 689" transform="translate(45.293)">
          <path id="Tracé_808" data-name="Tracé 808" d="M4952.167,820.561l-69.132,5.214a11.289,11.289,0,0,1-12.463-11.2v-4.548a12.763,12.763,0,0,1,12.463-12.48l69.132-1.885C4948.915,804.7,4948.188,813.167,4952.167,820.561Z" transform="translate(-4868.603 -794.401)" fill="url(#linear-gradient-3)"/>
          <path id="Tracé_809" data-name="Tracé 809" d="M4933.783,809.658l-73.26,5.714c-5.983.467-10.941-6.283-10.941-15.055v-.1c0-8.772,4.958-16.031,10.941-16.18l73.26-1.821c.441-.011.8.573.8,1.3s-.356,1.335-.8,1.348l-73.26,2.2c-4.813.144-8.788,6-8.788,13.041v.1c0,7.045,3.974,12.487,8.788,12.137l73.26-5.338c.441-.032.8.535.8,1.266S4934.224,809.623,4933.783,809.658Z" transform="translate(-4849.582 -782.219)" fill="url(#linear-gradient)"/>
        </g>
      </g>
      <path id="Tracé_810" data-name="Tracé 810" d="M4686.593,860.782l-10.1-1.764c-2.357-6.434-2.18-12.345,0-19.41l10.1.718A37.121,37.121,0,0,0,4686.593,860.782Z" transform="translate(-4645.897 -831.931)" fill="#fff" opacity="0.5" style="mix-blend-mode: soft-light;isolation: isolate"/>
    </g>
    <g id="Groupe_695" data-name="Groupe 695" transform="translate(4499.124 17.021)">
      <g id="Groupe_694" data-name="Groupe 694" transform="translate(0)">
        <path id="Tracé_811" data-name="Tracé 811" d="M5861.822,44.934s16.821-29.126,39.57,20.406c17.713,38.569,6.265,81.478-34.715,93.252s-104.986-12-84.9-28.763C5824.4,94.282,5856.742,62.773,5861.822,44.934Z" transform="translate(-5777.975 -36.426)" fill="#eb5149"/>
        <g id="Groupe_692" data-name="Groupe 692" transform="translate(6.071 0.006)" opacity="0.3" style="mix-blend-mode: multiply;isolation: isolate">
          <path id="Tracé_812" data-name="Tracé 812" d="M5941.578,71.161c1.2,3.528,1.468,13.578.963,25.135-.451,10.31.485,15.7-15.918,23.2-5.622,2.57-9.511,10.727-18.119,15.579-3.9,2.2-18.605,10.159-37.593,6.943a55.592,55.592,0,0,1-28.217-14.032c41.49-34.768,72.788-65.478,77.777-83,0,0,6.146-10.634,16.03-8.116C5934.1,39.544,5933.289,46.743,5941.578,71.161Z" transform="translate(-5842.694 -36.485)" fill="#eb5149"/>
        </g>
        <g id="Groupe_693" data-name="Groupe 693" transform="translate(0 18.822)" opacity="0.3" style="mix-blend-mode: multiply;isolation: isolate">
          <path id="Tracé_813" data-name="Tracé 813" d="M5801.089,328.7c19.38,10.7,51.748,17.234,75.863-.677,22.328-16.584,24.318-44.358,25.062-52.834a82.344,82.344,0,0,0-5.766-38.116c1.677,2.931,3.394,6.276,5.146,10.091,17.714,38.569,6.266,81.478-34.715,93.252-40.337,11.589-102.982-11.268-85.778-27.969A76.2,76.2,0,0,0,5801.089,328.7Z" transform="translate(-5777.977 -237.075)" fill="#eb5149"/>
        </g>
      </g>
      <path id="Tracé_814" data-name="Tracé 814" d="M6083.474,212.218c.575,0,1.15-.007,1.734-.019,14.968-.334,35.981-5.306,51.091-27.092,12.762-18.4,11.054-39.167,7.374-53.348a102.479,102.479,0,0,0-11.144-26.611.266.266,0,1,0-.448.288,101.922,101.922,0,0,1,11.08,26.472c3.648,14.069,5.344,34.665-7.3,52.9-14.981,21.6-35.821,26.531-50.665,26.863a84.465,84.465,0,0,1-28.933-4.5.266.266,0,1,0-.191.5A84.983,84.983,0,0,0,6083.474,212.218Z" transform="translate(-6029.83 -98.59)" fill="#eb5149" opacity="0.3" style="mix-blend-mode: multiply;isolation: isolate"/>
    </g>
    <g id="Groupe_696" data-name="Groupe 696" transform="translate(4457.587 112.927)">
      <path id="Tracé_815" data-name="Tracé 815" d="M5349.986,1073.782c1.068-1.15,2.982-6.1-.509-7.117-3.51-1.023-5.461-2.318-10.294-6.192s-6.075-.547.752,5.745S5348.468,1075.417,5349.986,1073.782Z" transform="translate(-5335.185 -1058.815)" fill="#1d1d1b"/>
      <path id="Tracé_816" data-name="Tracé 816" d="M5487.938,1114.274l-2.875,2.51a1.8,1.8,0,0,1-2.148.166,1.17,1.17,0,0,1-.135-1.879l4.2-3.6Z" transform="translate(-5468.563 -1106.536)" fill="#1d1d1b"/>
    </g>
    <g id="Groupe_698" data-name="Groupe 698" transform="translate(4473.688 87.395)">
      <path id="Tracé_817" data-name="Tracé 817" d="M5596.223,795.731c5.081,4.451-5.524,19.045-22.464,14.315-20.529-5.733-46.637-3.156-64.236,11.173-1.021-.908-3.55-2.333-2.394-3.5,15.9-16.077,30.624-25.306,42.821-27.783C5568.391,786.19,5581.758,783.06,5596.223,795.731Z" transform="translate(-5506.833 -786.635)" fill="#2e5b9a"/>
      <g id="Groupe_697" data-name="Groupe 697" transform="translate(24.685 0)" opacity="0.24" style="mix-blend-mode: multiply;isolation: isolate">
        <path id="Tracé_818" data-name="Tracé 818" d="M5775.127,801.844c-2.978,1.732-3.612-1.787-5.149-4.1,6.595-4.049,12.788-6.662,18.433-7.808,18.44-3.744,31.808-6.874,46.273,5.8,5.081,4.45-5.524,19.045-22.464,14.315a78.985,78.985,0,0,0-19.5-2.8C5787.293,803.832,5782.853,796,5775.127,801.844Z" transform="translate(-5769.978 -786.635)" fill="#2e5b9a"/>
      </g>
    </g>
    <g id="Groupe_699" data-name="Groupe 699" transform="translate(4551.8 88.649)">
      <path id="Tracé_819" data-name="Tracé 819" d="M6353.8,823.056l1.043.4s6.745-6.368,7.947-7.991c1.467-1.98-15.051-7.029-20.414-13.635-5.637-6.941-1.184,8.241-1.184,8.241Z" transform="translate(-6339.527 -800.011)" fill="#27497c"/>
    </g>
    <path id="Tracé_820" data-name="Tracé 820" d="M6273.792,379.592s-5.988.821-12.554,12.464c-4.937,8.754-15.656,16.007-15.656,16.007l-1.1,6.888,8.9,1.563,3.182-2.1,8.681-18.47Z" transform="translate(-1701.597 -330.38)" fill="#0181cc"/>
    <g id="Groupe_701" data-name="Groupe 701" transform="translate(4546.658 47.76)">
      <path id="Tracé_821" data-name="Tracé 821" d="M6321.856,364.829s14.761,1.82,15.078,18.806c.292,15.674-5.363,21.747-19.239,34.817-1.4,1.314-3.659,1.315-3.826,1.5q-1.352,1.525-2.739,3.184a70.955,70.955,0,0,0-26.422-15.954s12.951-26.793,18.642-35.674C6309.217,362.355,6318.066,363.919,6321.856,364.829Z" transform="translate(-6284.708 -364.121)" fill="#01a1ff"/>
      <g id="Groupe_700" data-name="Groupe 700" transform="translate(0 16.345)" opacity="0.3" style="mix-blend-mode: multiply;isolation: isolate">
        <path id="Tracé_822" data-name="Tracé 822" d="M6297.349,562.3c6.231,3.334,15.062,2.957,18.31-1.169,2.446-3.107,2.842-4.265,5.819-9.144,2.4-3.925,3.561-4.555,8.795-7.859a26.367,26.367,0,0,0,6.414-5.758,26.352,26.352,0,0,1,.248,3.169c.292,15.674-5.363,21.747-19.239,34.817-1.4,1.314-3.659,1.315-3.826,1.5q-1.352,1.525-2.739,3.184a70.953,70.953,0,0,0-26.422-15.954s2.149-4.214,5-10.139A16.773,16.773,0,0,0,6297.349,562.3Z" transform="translate(-6284.708 -538.366)" fill="#01a1ff"/>
      </g>
    </g>
    <path id="Tracé_823" data-name="Tracé 823" d="M6395.081,726.875a13.61,13.61,0,0,1-4.784-.671c-1.987-.8-1.823-.984-4.11-1.274-2.223-.282-6.6-1.6-4.122-3.856,2.759-2.509,7.488-1.806,8.847-.14a11.3,11.3,0,0,0,3.581,2.626Z" transform="translate(-1825.605 -638.339)" fill="#aa9587"/>
    <path id="Tracé_824" data-name="Tracé 824" d="M6537.735,461s8.2.955,3.415,27.354c-2.481,13.692-14.746,11.764-29.555,6.107-1-2.1.288-6.542.288-6.542s18.4,7.586,18.875-3.481C6531.292,472.032,6532.952,459.692,6537.735,461Z" transform="translate(-1943.309 -404.067)" fill="#01a1ff"/>
    <path id="Tracé_825" data-name="Tracé 825" d="M6638.391,243.3s-.921,10.592-.089,12.6-1.8,4.741-6.988,5.794-1.082-10.563-1.082-10.563Z" transform="translate(-2049.762 -206.872)" fill="#aa9587"/>
    <path id="Tracé_826" data-name="Tracé 826" d="M6611.817,31.634c-3.249-5.219,3.655-17.189,6.829-16.6,1.823.337.477,4.468,4.3,9.461,2.973,3.888,6.251,4.6,6.376,7.715a7.14,7.14,0,0,1-1.568,4.428,17.953,17.953,0,0,1-3.055,2.672c-1.537,1.173-1.45,1.145-1.913,1.48a25.037,25.037,0,0,1-6.575,3.281,17.416,17.416,0,0,0,.1-3.025,15.379,15.379,0,0,0-.709-3.86C6614.567,34.2,6612.748,33.131,6611.817,31.634Z" transform="translate(-2033.705)" fill="#633146"/>
    <path id="Tracé_827" data-name="Tracé 827" d="M6600.036,190.622a9.453,9.453,0,0,1-9.26,1.045c-4.535-2.027-1.348-12.7,2.441-13.811a6.257,6.257,0,0,1,4.806,1.11c.854.62,1.029,1.136,2.443,2.122,1.3.91,1.771.9,2.071,1.43.374.661.356,1.934-1.685,4.643a2.7,2.7,0,0,1,3.034.117,1.7,1.7,0,0,1,.395.833C6604.49,189.542,6602.839,190.658,6600.036,190.622Z" transform="translate(-2013.388 -147.45)" fill="#aa9587"/>
    <g id="Groupe_702" data-name="Groupe 702" transform="translate(4523.261 66.889)">
      <path id="Tracé_828" data-name="Tracé 828" d="M6159.3,799.822a.356.356,0,0,1,.292.245c.005.019-.047.688-.045.708a.336.336,0,0,1-.231.348l-12.552,4.077-23.457-9.186,11.145.852Z" transform="translate(-6115.049 -774.629)" fill="#26264f"/>
      <path id="Tracé_829" data-name="Tracé 829" d="M6159.736,792.586a.336.336,0,0,1,.055.652l-12.552,4.077-23.457-9.186,11.146.852Z" transform="translate(-6115.481 -767.483)" fill="#444b8c"/>
      <path id="Tracé_830" data-name="Tracé 830" d="M6073.979,597.688l-1.87-24.469a.848.848,0,0,0-.714-.773l-28.09-4.4a.848.848,0,0,0-.978.877l1.055,22.807a.847.847,0,0,0,.692.794l29.183,5.4Z" transform="translate(-6041.667 -568.038)" fill="url(#linear-gradient-8)"/>
      <path id="Tracé_831" data-name="Tracé 831" d="M6067.006,602.317l-1.928-25.009a.847.847,0,0,0-.714-.772l-28.091-4.4a.848.848,0,0,0-.978.877l1.054,22.81a.849.849,0,0,0,.688.794Z" transform="translate(-6035.293 -571.745)" fill="#26264f"/>
      <path id="Tracé_832" data-name="Tracé 832" d="M6074.128,764.783l-29.969-5.7a.848.848,0,0,1-.688-.794l-.318-6.879c8.928,5.07,20.116,5.715,30.542,7.748Z" transform="translate(-6042.416 -734.211)" fill="#1f1f44"/>
    </g>
    <path id="Tracé_833" data-name="Tracé 833" d="M5675.433,786.669c.41-1.422,1.315-2.995-1.917-4.142-2.346-.833-6.422-1.1-10.126-1.29-5.191-.266-6.385,2.84,1.2,4.815C5669.559,787.346,5674.85,788.692,5675.433,786.669Z" transform="translate(-1171.217 -694.334)" fill="#1d1d1b"/>
    <path id="Tracé_834" data-name="Tracé 834" d="M5789.107,802.83a1.38,1.38,0,0,0,1.12,1.515c1.536.219,1.248-.571,1.3-1.367s.669-1.349-1.12-1.515A1.33,1.33,0,0,0,5789.107,802.83Z" transform="translate(-1288.937 -712.673)" fill="#fff"/>
    <path id="Tracé_835" data-name="Tracé 835" d="M5815.067,764.966l-1.516-.239s-2.954.276-11.093,2.52c-1.742.289-4.118,5.375.988,5.574s11.32,4,11.32,4Z" transform="translate(-1299.135 -679.388)" fill="#27497c"/>
    <path id="Tracé_836" data-name="Tracé 836" d="M5955.443,787.669s-.743,6.6-16.088,6-42.759-16.531-42.586-24.89,10.374-5.02,20.936-.188c8.915,4.078,22.686,6.44,25.508,6.878C5946.825,776.028,5956.315,784.5,5955.443,787.669Z" transform="translate(-1386.5 -678.428)" fill="#2e5b9a"/>
    <g id="Groupe_703" data-name="Groupe 703" transform="translate(4516.609 85.298)" opacity="0.2" style="mix-blend-mode: multiply;isolation: isolate">
      <path id="Tracé_837" data-name="Tracé 837" d="M5996.636,779.952c-7.1-.724-8.7-5.821-17.537-7.295-5.728-.955-7.75.737-10.67-1.219-2.3-1.544-3.481-4.235-4.048-7.159,3.917.332,9.2,2.4,14.594,4.864,8.659,3.961,21.9,6.3,25.238,6.836.1.016,2.337-.785,2.337-.785s1.667.952,2.862,1.7C6004.755,779.395,5999.23,780.217,5996.636,779.952Z" transform="translate(-5964.381 -764.28)" fill="url(#linear-gradient-9)"/>
    </g>
  </g>
</svg>
