<svg xmlns="http://www.w3.org/2000/svg" width="31" height="30.099" viewBox="0 0 31 30.099">
  <g id="illus" transform="translate(-552 -650.901)">
    <ellipse id="shadow" cx="15.5" cy="4" rx="15.5" ry="4" transform="translate(552 673)" fill="#f0efff"/>
    <path id="Icon_awesome-door-open" data-name="Icon awesome-door-open" d="M29.37,21.086H25.6V5.34a2.3,2.3,0,0,0-2.259-2.328H18.074V6.025h4.519V24.1H29.37a.753.753,0,0,0,.753-.753V21.839A.753.753,0,0,0,29.37,21.086ZM14.7.048,5.659,2.389A1.551,1.551,0,0,0,4.519,3.9V21.086H.753A.753.753,0,0,0,0,21.839v1.506a.753.753,0,0,0,.753.753H16.568V1.562A1.519,1.519,0,0,0,14.7.048ZM12.426,13.556c-.624,0-1.13-.674-1.13-1.506s.506-1.506,1.13-1.506,1.13.674,1.13,1.506S13.05,13.556,12.426,13.556Z" transform="translate(552.438 650.901)" fill="#0095D1"/>
  </g>
</svg>
