<svg xmlns="http://www.w3.org/2000/svg" width="34.079" height="36" viewBox="0 0 34.079 36">
  <g id="illus" transform="translate(-550.461 -645)">
    <ellipse id="shadow" cx="15.5" cy="4" rx="15.5" ry="4" transform="translate(552 673)" fill="#f0efff"/>
    <path id="Icon_awesome-robot" data-name="Icon awesome-robot" d="M0,13.632v6.816a1.7,1.7,0,0,0,1.7,1.7h1.7V11.928H1.7A1.7,1.7,0,0,0,0,13.632Zm24.707-8.52H18.743V1.7a1.7,1.7,0,0,0-3.408,0V5.112H9.372a4.259,4.259,0,0,0-4.26,4.26V23.855A3.411,3.411,0,0,0,8.52,27.263H25.559a3.411,3.411,0,0,0,3.408-3.408V9.372A4.259,4.259,0,0,0,24.707,5.112ZM13.632,22.151H10.224v-1.7h3.408Zm-1.7-6.39a2.13,2.13,0,1,1,2.13-2.13A2.129,2.129,0,0,1,11.928,15.762Zm6.816,6.39H15.336v-1.7h3.408Zm5.112,0H20.447v-1.7h3.408Zm-1.7-6.39a2.13,2.13,0,1,1,2.13-2.13A2.129,2.129,0,0,1,22.151,15.762Zm10.224-3.834h-1.7V22.151h1.7a1.7,1.7,0,0,0,1.7-1.7V13.632A1.7,1.7,0,0,0,32.375,11.928Z" transform="translate(550.461 645)" fill="#0095D1"/>
  </g>
</svg>
