<?xml version="1.0" encoding="utf-8"?>
<!-- Generator: Adobe Illustrator 25.0.1, SVG Export Plug-In . SVG Version: 6.00 Build 0)  -->
<svg version="1.1" id="Calque_1" xmlns="http://www.w3.org/2000/svg" xmlns:xlink="http://www.w3.org/1999/xlink" x="0px" y="0px"
	 viewBox="0 0 512 512" style="enable-background:new 0 0 512 512;" xml:space="preserve">
<style type="text/css">
	.st0{fill:#FFFFFF;}
</style>
<g>
	<path class="st0" d="M416,139h-84.6v50.2H416c25.2,0,44.7,12.8,44.7,23.9v222.7c0,11.1-19.5,23.9-44.7,23.9H96.1
		c-25.2,0-44.7-12.9-44.7-23.9V213.2c0-11.1,19.5-23.9,44.7-23.9h84.6v-50.2H96.1c-53.2,0-94.9,32.6-94.9,74.1v222.7
		c0,41.6,41.7,74.1,94.9,74.1H416c53.2,0,94.9-32.6,94.9-74.1V213.2C510.9,171.6,469.2,139,416,139z"/>
	<path class="st0" d="M332,244c-6.4,0-12.8,2.5-17.8,7.4l-31.4,31.4v-109v-50.2V27.3c0-13.9-11.2-25.1-25.1-25.1
		c-13.9,0-25.1,11.2-25.1,25.1v96.2v50.2v110.7l-33.1-33.1c-4.9-4.9-11.3-7.4-17.8-7.4c-6.4,0-12.8,2.5-17.8,7.4
		c-9.8,9.8-9.8,25.7,0,35.5l75,75c4.9,4.9,11.3,7.3,17.7,7.3c0.1,0,0.1,0,0.2,0s0.1,0,0.2,0c6.4,0,12.8-2.4,17.7-7.3l75-75
		c9.8-9.8,9.8-25.7,0-35.5C344.9,246.5,338.5,244,332,244z"/>
</g>
</svg>
