<?xml version="1.0" standalone="no"?>
<!DOCTYPE svg PUBLIC "-//W3C//DTD SVG 20010904//EN"
 "http://www.w3.org/TR/2001/REC-SVG-20010904/DTD/svg10.dtd">
<svg version="1.0" xmlns="http://www.w3.org/2000/svg"
 width="166.000000pt" height="166.000000pt" viewBox="0 0 166.000000 166.000000"
 preserveAspectRatio="xMidYMid meet">

<g transform="translate(0.000000,166.000000) scale(0.100000,-0.100000)"
fill="#B8B8B8" stroke="none">
<path d="M645 1636 c-249 -57 -457 -226 -563 -456 -59 -127 -75 -203 -75 -350
1 -186 43 -323 145 -472 l43 -63 5 436 c4 349 8 439 19 452 16 20 71 23 89 5
9 -9 12 -136 12 -509 l0 -498 33 -25 c46 -35 192 -103 262 -121 86 -23 249
-30 342 -15 97 15 215 58 293 105 l60 36 0 375 0 375 25 24 c28 29 42 31 73 9
22 -15 22 -16 22 -342 l1 -327 40 45 c51 57 133 224 156 315 25 103 23 305 -5
407 -75 275 -282 491 -557 578 -89 29 -326 37 -420 16z m761 -460 c10 -16 12
-31 7 -40 -18 -32 -547 -648 -568 -662 -19 -13 -28 -13 -46 -3 -30 15 -388
323 -413 354 -18 23 -18 25 -2 49 33 52 58 39 247 -124 96 -82 177 -150 181
-150 3 0 106 118 229 262 122 145 238 280 258 301 43 45 82 50 107 13z"/>
</g>
</svg>
