<?xml version="1.0" encoding="utf-8"?>
<!-- Generator: Adobe Illustrator 25.0.1, SVG Export Plug-In . SVG Version: 6.00 Build 0)  -->
<svg version="1.1" id="Calque_1" xmlns="http://www.w3.org/2000/svg" xmlns:xlink="http://www.w3.org/1999/xlink" x="0px" y="0px"
	 viewBox="0 0 512 512" style="enable-background:new 0 0 512 512;" xml:space="preserve">
<style type="text/css">
	.st0{fill:#0082C8;}
</style>
<g>
	<g>
		<path class="st0" d="M299.6,512.1c-45.8,0-89.4-14.3-126.1-41.4l-12.1-8.9l123.1-166.9V87.2h15c117.1,0,212.4,95.3,212.4,212.4
			S416.8,512.1,299.6,512.1L299.6,512.1z M203.8,455c28.7,17.8,61.6,27.1,95.8,27.1c100.6,0,182.4-81.8,182.4-182.4
			c0-95.6-73.8-174.2-167.4-181.8v186.9L203.8,455z"/>
	</g>
	<g>
		<path class="st0" d="M98.5,448.8l-12.1-8.9c-26.2-19.3-47.9-44.8-62.8-73.7C8.2,336.3,0.1,302.6,0.1,268.8
			c0-50.9,18.3-100.2,51.5-138.7l9.8-11.4l171.5,147.9L98.5,448.8z M64.9,161.5c-22.6,31-34.9,68.6-34.9,107.3
			c0,52.7,23.1,103,62.5,137.5l99.6-135L64.9,161.5z"/>
	</g>
	<g>
		<path class="st0" d="M239.5,209.9L80.6,72.9l9.8-11.4c33.7-39,82.5-61.4,134-61.4h15V209.9z M123.5,70.3l85.9,74.1V30.9
			C177.3,34.2,147.1,48,123.5,70.3z"/>
	</g>
</g>
</svg>
