<?xml version="1.0" encoding="utf-8"?>
<svg version="1.1" id="Calque_1" xmlns="http://www.w3.org/2000/svg" xmlns:xlink="http://www.w3.org/1999/xlink" x="0px" y="0px"
	 viewBox="0 0 512 512" style="enable-background:new 0 0 512 512;fill:#0082C8;" xml:space="preserve" >
<g>
	<path d="M504,485h-24V13c0-4.4-3.6-8-8-8c-1,0-1.9,0.2-2.9,0.5l-208,80c-3.1,1.2-5.1,4.2-5.1,7.5v122.5l-202.9,78
		c-3.1,1.2-5.1,4.2-5.1,7.5v184H24c-4.4,0-8,3.6-8,8s3.6,8,8,8h480c4.4,0,8-3.6,8-8S508.4,485,504,485z M256,485H64V306.5l192-73.8
		V485z M360,485h-32v-80h32V485z M408,485h-32v-80h32V485z M464,485h-40v-88c0-4.4-3.6-8-8-8h-96c-4.4,0-8,3.6-8,8v88h-40V98.5
		l192-73.8V485z"/>
	<path d="M216,325H96c-4.4,0-8,3.6-8,8v48c0,4.4,3.6,8,8,8h120c4.4,0,8-3.6,8-8v-48C224,328.6,220.4,325,216,325z M208,373H104v-32
		h104V373z"/>
	<path d="M216,397h-48c-4.4,0-8,3.6-8,8v48c0,4.4,3.6,8,8,8h48c4.4,0,8-3.6,8-8v-48C224,400.6,220.4,397,216,397z M208,445h-32v-32
		h32V445z"/>
	<path d="M144,397H96c-4.4,0-8,3.6-8,8v48c0,4.4,3.6,8,8,8h48c4.4,0,8-3.6,8-8v-48C152,400.6,148.4,397,144,397z M136,445h-32v-32
		h32V445z"/>
	<path d="M432,229h-48c-4.4,0-8,3.6-8,8v48c0,4.4,3.6,8,8,8h48c4.4,0,8-3.6,8-8v-48C440,232.6,436.4,229,432,229z M424,277h-32v-32
		h32V277z"/>
	<path d="M352,229h-48c-4.4,0-8,3.6-8,8v48c0,4.4,3.6,8,8,8h48c4.4,0,8-3.6,8-8v-48C360,232.6,356.4,229,352,229z M344,277h-32v-32
		h32V277z"/>
	<path d="M432,301h-48c-4.4,0-8,3.6-8,8v48c0,4.4,3.6,8,8,8h48c4.4,0,8-3.6,8-8v-48C440,304.6,436.4,301,432,301z M424,349h-32v-32
		h32V349z"/>
	<path d="M352,301h-48c-4.4,0-8,3.6-8,8v48c0,4.4,3.6,8,8,8h48c4.4,0,8-3.6,8-8v-48C360,304.6,356.4,301,352,301z M344,349h-32v-32
		h32V349z"/>
	<path d="M432,149h-48c-4.4,0-8,3.6-8,8v48c0,4.4,3.6,8,8,8h48c4.4,0,8-3.6,8-8v-48C440,152.6,436.4,149,432,149z M424,197h-32v-32
		h32V197z"/>
	<path d="M352,149h-48c-4.4,0-8,3.6-8,8v48c0,4.4,3.6,8,8,8h48c4.4,0,8-3.6,8-8v-48C360,152.6,356.4,149,352,149z M344,197h-32v-32
		h32V197z"/>
</g>
</svg>
