<?xml version="1.0" encoding="utf-8"?>
<!-- Generator: Adobe Illustrator 25.0.1, SVG Export Plug-In . SVG Version: 6.00 Build 0)  -->
<svg version="1.1" id="Calque_1" xmlns="http://www.w3.org/2000/svg" xmlns:xlink="http://www.w3.org/1999/xlink" x="0px" y="0px"
	 viewBox="0 0 512 512" style="enable-background:new 0 0 512 512;" xml:space="preserve">
<style type="text/css">
	.st0{fill:#0082C8;}
</style>
<g>
	<g>
		<path class="st0" d="M372,126.2H207c-4.3,0-7.8,3.5-7.8,7.8s3.5,7.8,7.8,7.8H372c4.3,0,7.8-3.5,7.8-7.8
			C379.8,129.7,376.3,126.2,372,126.2z"/>
	</g>
</g>
<g>
	<g>
		<path class="st0" d="M170.9,126.2h-26.1c-4.3,0-7.8,3.5-7.8,7.8s3.5,7.8,7.8,7.8h26.1c4.3,0,7.8-3.5,7.8-7.8
			S175.2,126.2,170.9,126.2z"/>
	</g>
</g>
<g>
	<g>
		<path class="st0" d="M225.8,363.9h-81.1c-4.3,0-7.8,3.5-7.8,7.8c0,4.3,3.5,7.8,7.8,7.8h81.1c4.3,0,7.8-3.5,7.8-7.8
			C233.6,367.4,230.1,363.9,225.8,363.9z"/>
	</g>
</g>
<g>
	<g>
		<path class="st0" d="M258.4,284.7H144.7c-4.3,0-7.8,3.5-7.8,7.8c0,4.3,3.5,7.8,7.8,7.8h113.6c4.3,0,7.8-3.5,7.8-7.8
			C266.1,288.2,262.7,284.7,258.4,284.7z"/>
	</g>
</g>
<g>
	<g>
		<path class="st0" d="M313.7,205.5h-169c-4.3,0-7.8,3.5-7.8,7.8s3.5,7.8,7.8,7.8h169c4.3,0,7.8-3.5,7.8-7.8S318,205.5,313.7,205.5z
			"/>
	</g>
</g>
<g>
	<g>
		<path class="st0" d="M460.5,46.9H140c-28.4,0-51.5,23.1-51.5,51.5v305.1H7.9c-2.1,0-4.1,0.8-5.5,2.3c-1.5,1.5-2.3,3.5-2.2,5.5
			c0.3,30.8,22.4,54,51.5,54H372h1c28.4,0,51.5-23.1,51.5-51.5v-94c0-4.3-3.5-7.8-7.8-7.8s-7.8,3.5-7.8,7.8v94c0,19.8-16.1,36-36,36
			h-1c-20.3,0-35.7-16.6-36-38.6c0-4.3-3.5-7.7-7.8-7.7H104V98.4c0-19.8,16.1-36,36-36h283.7c-0.2,0.2-0.4,0.5-0.7,0.7
			c-0.3,0.3-0.5,0.6-0.8,0.9c-0.3,0.3-0.5,0.6-0.8,0.9c-0.3,0.3-0.5,0.6-0.8,0.9c-0.3,0.3-0.5,0.7-0.8,1c-0.2,0.3-0.5,0.6-0.7,1
			c-0.2,0.3-0.5,0.7-0.7,1c-0.2,0.3-0.5,0.7-0.7,1c-0.2,0.3-0.4,0.7-0.7,1c-0.2,0.3-0.4,0.7-0.7,1c-0.2,0.4-0.4,0.7-0.6,1.1
			c-0.2,0.4-0.4,0.7-0.6,1.1c-0.2,0.4-0.4,0.7-0.6,1.1c-0.2,0.4-0.4,0.7-0.6,1.1c-0.2,0.4-0.3,0.8-0.5,1.1c-0.2,0.4-0.3,0.8-0.5,1.1
			c-0.2,0.4-0.3,0.8-0.5,1.2c-0.2,0.4-0.3,0.8-0.4,1.2c-0.1,0.4-0.3,0.8-0.4,1.2c-0.1,0.4-0.3,0.8-0.4,1.2c-0.1,0.4-0.2,0.8-0.4,1.3
			c-0.1,0.4-0.2,0.8-0.3,1.2c-0.1,0.4-0.2,0.9-0.3,1.3c-0.1,0.4-0.2,0.8-0.3,1.2c-0.1,0.5-0.2,0.9-0.2,1.4c-0.1,0.4-0.1,0.8-0.2,1.1
			c-0.1,0.5-0.1,1-0.2,1.5c0,0.4-0.1,0.7-0.1,1.1c-0.1,0.6-0.1,1.1-0.1,1.7c0,0.3-0.1,0.6-0.1,0.9c0,0.9-0.1,1.7-0.1,2.6v2.6v175.9
			c0,4.3,3.5,7.8,7.8,7.8c4.3,0,7.8-3.5,7.8-7.8V108.7h79.8c2.1,0,4.1-0.8,5.5-2.3c1.5-1.5,2.3-3.5,2.2-5.5
			C511.7,70.1,489.6,46.9,460.5,46.9z M321.1,419c0.1,0.8,0.2,1.6,0.4,2.4c0,0.3,0.1,0.5,0.2,0.8c0.1,0.5,0.2,1,0.3,1.6
			c0.1,0.3,0.1,0.6,0.2,0.9c0.1,0.5,0.2,0.9,0.3,1.4c0.1,0.3,0.2,0.6,0.3,1c0.1,0.4,0.2,0.9,0.4,1.3c0.1,0.3,0.2,0.6,0.3,1
			c0.1,0.4,0.3,0.8,0.4,1.3c0.1,0.3,0.2,0.6,0.3,1c0.2,0.4,0.3,0.8,0.5,1.2c0.1,0.3,0.2,0.6,0.4,0.9c0.2,0.4,0.3,0.8,0.5,1.2
			c0.1,0.3,0.3,0.6,0.4,0.9c0.2,0.4,0.4,0.8,0.6,1.3c0.1,0.3,0.3,0.5,0.4,0.8c0.3,0.5,0.5,1,0.8,1.4c0.1,0.2,0.2,0.4,0.3,0.5
			c0.4,0.6,0.8,1.3,1.1,1.9c0.1,0.1,0.2,0.3,0.3,0.4c0.3,0.5,0.6,1,0.9,1.4c0.1,0.2,0.3,0.4,0.5,0.6c0.3,0.4,0.6,0.8,0.8,1.2
			c0.2,0.2,0.3,0.5,0.5,0.7c0.3,0.4,0.6,0.7,0.8,1.1c0.2,0.2,0.4,0.5,0.6,0.7c0.3,0.3,0.6,0.7,0.9,1c0.2,0.2,0.4,0.4,0.6,0.7
			c0.1,0.2,0.3,0.3,0.4,0.5H51.6l0,0c-17.8,0-31.9-12.8-35.2-30.8L321.1,419L321.1,419z M424.9,93.2c0-0.1,0-0.1,0-0.2
			c0-0.2,0.1-0.5,0.1-0.7c0.1-0.3,0.1-0.7,0.2-1c0-0.3,0.1-0.5,0.2-0.7c0.1-0.3,0.1-0.6,0.2-0.9c0.1-0.3,0.1-0.5,0.2-0.8
			c0.1-0.3,0.2-0.6,0.2-0.9c0.1-0.3,0.2-0.5,0.2-0.8c0.1-0.3,0.2-0.5,0.3-0.8c0.1-0.3,0.2-0.5,0.3-0.8c0.1-0.3,0.2-0.5,0.3-0.8
			c0.1-0.3,0.2-0.5,0.3-0.8c0.1-0.2,0.2-0.5,0.3-0.7c0.1-0.3,0.3-0.6,0.4-0.8c0.1-0.2,0.2-0.4,0.3-0.6c0.2-0.3,0.3-0.6,0.5-0.9
			c0.1-0.1,0.1-0.2,0.2-0.3c0.7-1.3,1.5-2.5,2.4-3.7c0,0,0,0,0,0c0.3-0.4,0.6-0.7,0.9-1.1c0-0.1,0.1-0.1,0.1-0.2
			c0.3-0.4,0.6-0.7,0.9-1c0.1-0.1,0.1-0.1,0.2-0.2c0.3-0.3,0.6-0.7,0.9-1c0.1-0.1,0.1-0.1,0.2-0.2c0.3-0.3,0.7-0.7,1-1
			c0,0,0.1-0.1,0.1-0.1c0.4-0.3,0.7-0.7,1.1-1c0,0,0,0,0,0c4.7-4.1,10.6-7.1,17-8.3c0,0,0,0,0,0c0.5-0.1,1.1-0.2,1.6-0.3
			c0,0,0.1,0,0.1,0c0.5-0.1,1-0.1,1.5-0.2c0.1,0,0.2,0,0.2,0c0.5,0,0.9-0.1,1.4-0.1c0.3,0,0.6,0,0.8,0c0.3,0,0.6,0,0.9,0
			c17.8,0,31.9,12.8,35.2,30.8L424.9,93.2L424.9,93.2z"/>
	</g>
</g>
</svg>
