<?xml version="1.0" encoding="utf-8"?>
<!-- Generator: Adobe Illustrator 25.0.1, SVG Export Plug-In . SVG Version: 6.00 Build 0)  -->
<svg version="1.1" id="Calque_1" xmlns="http://www.w3.org/2000/svg" xmlns:xlink="http://www.w3.org/1999/xlink" x="0px" y="0px"
	 viewBox="0 0 512 512" style="enable-background:new 0 0 512 512;" xml:space="preserve">
<style type="text/css">
	.st0{fill:#0082C8;}
</style>
<path class="st0" d="M131.9,226.4c8.1,0,14.8-6.6,14.8-14.8c0-8.1-6.6-14.8-14.8-14.8s-14.8,6.6-14.8,14.8
	C117.2,219.8,123.8,226.4,131.9,226.4z"/>
<path class="st0" d="M258.9,433.1c-34.8,0-74.5-6.8-101.1-17.4c-5.7-2.3-12.2-0.8-16.4,3.7c-17.8,19.5-41,33.1-66.2,39.3
	c13.9-26.7,17.5-58.1,9-87.9c-0.7-2.3-1.9-4.5-3.6-6.2c-33.6-34.5-52-78.3-52-123.4c0-104,105.5-191.9,230.3-191.9
	c117.9,0,221.4,82,221.4,191.9C480.3,347,381,433.1,258.9,433.1z M384.1,49.3c-33.5-17.1-71.1-27-109.9-29.1l-29.6-0.1
	C118.1,26.5-0.9,117.7-0.9,241.2c0,51.6,20.4,101.6,57.6,141.2c7.4,30.3-1.6,62.4-23.7,84.6c-4.2,4.2-5.5,10.6-3.2,16.1
	s7.7,9.1,13.6,9.1c42.1,0,82.7-16.5,112.8-45.6c29.4,10,67.7,16.1,102.7,16.1c132.9,0,241.9-91.6,250.4-207
	C509.3,255.6,527.1,126,384.1,49.3z"/>
<path class="st0" d="M377,196.9H191c-8.2,0-14.8,6.6-14.8,14.8s6.6,14.8,14.8,14.8h186c8.2,0,14.8-6.6,14.8-14.8
	C391.7,203.5,385.1,196.9,377,196.9z"/>
<path class="st0" d="M377,285.4H132c-8.2,0-14.8,6.6-14.8,14.8c0,8.2,6.6,14.8,14.8,14.8h245c8.2,0,14.8-6.6,14.8-14.8
	C391.7,292.1,385.1,285.4,377,285.4z"/>
</svg>
