<?xml version="1.0" encoding="utf-8"?>
<!-- Generator: Adobe Illustrator 25.0.1, SVG Export Plug-In . SVG Version: 6.00 Build 0)  -->
<svg version="1.1" id="Calque_1" xmlns="http://www.w3.org/2000/svg" xmlns:xlink="http://www.w3.org/1999/xlink" x="0px" y="0px"
	 viewBox="0 0 512 512" style="enable-background:new 0 0 512 512;" xml:space="preserve">
<style type="text/css">
	.st0{fill:#0082C8;}
</style>
<g>
	<g>
		<path class="st0" d="M414.8,43.9h-35.4V10.6c0-5.2-4.2-9.4-9.4-9.4H97.4c-5.2,0-9.4,4.2-9.4,9.4v446.9c0,3.6,2,6.8,5.2,8.4
			c3.2,1.6,7.1,1.1,9.9-1.1l29.7-23.9v58.9c0,5.2,4.2,9.3,9.4,9.3c2.1,0,4.1-0.7,5.8-2l131.7-103.6l129.1,104.3
			c4,3.3,9.9,2.6,13.2-1.4c1.4-1.7,2.1-3.8,2.1-5.9V53.3C424.1,48.1,419.9,43.9,414.8,43.9z M142.3,43.9c-5.2,0-9.4,4.2-9.4,9.4
			v364.1l-26.2,20.8V20h254v23.9H142.3z M405.4,480.6l-119.6-96.7c-3.4-2.7-8.3-2.7-11.7,0l-122.5,97V62.7h253.8V480.6z"/>
	</g>
</g>
<g>
	<g>
		<path class="st0" d="M278.6,100.7c-30-0.2-54.5,24.1-54.6,54.1c-0.2,30,24.1,54.5,54.1,54.6c30,0.2,54.5-24.1,54.6-54.1
			c0-0.1,0-0.2,0-0.3C332.6,125.2,308.5,100.9,278.6,100.7z M278.6,190.6c-19.7,0.2-35.8-15.7-35.9-35.4s15.7-35.8,35.4-35.9
			c19.7-0.2,35.8,15.7,35.9,35.4c0,0.1,0,0.2,0,0.4C313.9,174.6,298.1,190.5,278.6,190.6z"/>
	</g>
</g>
</svg>
