<svg xmlns="http://www.w3.org/2000/svg" width="13.799" height="16.95" viewBox="0 0 13.799 16.95">
  <path id="Tracé_793" data-name="Tracé 793" d="M54.321,0H47.513a1.807,1.807,0,0,0-1.8,1.8V8.475h-.176a.727.727,0,0,0-.727.727V13.61a.727.727,0,0,0,.727.727h.176v.808a1.806,1.806,0,0,0,1.8,1.8H56.8a1.806,1.806,0,0,0,1.8-1.8V4.27ZM46.713,10a5.7,5.7,0,0,1,.934-.063,1.466,1.466,0,0,1,.934.245.894.894,0,0,1,.327.708.977.977,0,0,1-.281.726,1.418,1.418,0,0,1-.993.322,1.79,1.79,0,0,1-.236-.013v1.093h-.685ZM56.8,15.845H47.513a.7.7,0,0,1-.7-.7v-.808h8.659a.727.727,0,0,0,.727-.727V9.2a.727.727,0,0,0-.727-.727H46.814V1.8a.7.7,0,0,1,.7-.7L53.908,1.1V3.463a1.251,1.251,0,0,0,1.251,1.251l2.315-.007L57.5,15.146A.7.7,0,0,1,56.8,15.845ZM49.35,13V10a6.227,6.227,0,0,1,.934-.063,1.969,1.969,0,0,1,1.252.326,1.353,1.353,0,0,1,.517,1.152,1.55,1.55,0,0,1-.508,1.238,2.195,2.195,0,0,1-1.411.395A5.985,5.985,0,0,1,49.35,13ZM54.3,11.223v.562H53.2v1.229h-.694V9.957h1.869v.567H53.2v.7Z" transform="translate(-44.806)" fill="#02c2ef"/>
</svg>
