<svg id="Picto" xmlns="http://www.w3.org/2000/svg" width="27.762" height="27.762" viewBox="0 0 27.762 27.762">
  <g id="Groupe_682" data-name="Groupe 682">
    <g id="Groupe_681" data-name="Groupe 681">
      <path id="Tracé_794" data-name="Tracé 794" d="M13.881,0A13.881,13.881,0,1,0,27.762,13.881,13.873,13.873,0,0,0,13.881,0Zm0,25.593A11.712,11.712,0,1,1,25.593,13.881,11.705,11.705,0,0,1,13.881,25.593Z" fill="#1f0098"/>
    </g>
  </g>
  <g id="Groupe_684" data-name="Groupe 684" transform="translate(12.796 11.621)">
    <g id="Groupe_683" data-name="Groupe 683">
      <path id="Tracé_795" data-name="Tracé 795" d="M237.084,214.33A1.084,1.084,0,0,0,236,215.414V222.4a1.084,1.084,0,1,0,2.169,0v-6.983A1.084,1.084,0,0,0,237.084,214.33Z" transform="translate(-236 -214.33)" fill="#1f0098"/>
    </g>
  </g>
  <g id="Groupe_686" data-name="Groupe 686" transform="translate(12.417 7.366)">
    <g id="Groupe_685" data-name="Groupe 685">
      <circle id="Ellipse_28" data-name="Ellipse 28" cx="1.464" cy="1.464" r="1.464" fill="#1f0098"/>
    </g>
  </g>
</svg>
