<svg id="Picto" xmlns="http://www.w3.org/2000/svg" width="20.821" height="27.762" viewBox="0 0 20.821 27.762">
  <path id="Tracé_313" data-name="Tracé 313" d="M81.915,27.615H67.456a3.184,3.184,0,0,1-3.181-3.181V3.034A3.184,3.184,0,0,1,67.456-.147H81.915A3.184,3.184,0,0,1,85.1,3.034v21.4A3.184,3.184,0,0,1,81.915,27.615ZM67.456,1.588A1.448,1.448,0,0,0,66.01,3.034v21.4a1.448,1.448,0,0,0,1.446,1.446H81.915a1.448,1.448,0,0,0,1.446-1.446V3.034a1.448,1.448,0,0,0-1.446-1.446Z" transform="translate(-64.275 0.147)" fill="#1f0098"/>
  <path id="Tracé_314" data-name="Tracé 314" d="M139.593,268.254H131.02a.868.868,0,0,1,0-1.735h8.574a.868.868,0,1,1,0,1.735Z" transform="translate(-126.58 -252.06)" fill="#1f0098"/>
  <path id="Tracé_315" data-name="Tracé 315" d="M139.593,88.254H131.02a.868.868,0,0,1,0-1.735h8.574a.868.868,0,0,1,0,1.735Z" transform="translate(-126.58 -81.82)" fill="#1f0098"/>
  <path id="Tracé_316" data-name="Tracé 316" d="M139.593,396.254H131.02a.868.868,0,0,1,0-1.735h8.574a.868.868,0,1,1,0,1.735Z" transform="translate(-126.58 -373.119)" fill="#1f0098"/>
  <path id="Tracé_317" data-name="Tracé 317" d="M143.064,332.254H131.02a.868.868,0,0,1,0-1.735h12.044a.868.868,0,1,1,0,1.735Z" transform="translate(-126.58 -312.59)" fill="#1f0098"/>
  <path id="Tracé_318" data-name="Tracé 318" d="M143.064,208.254H131.02a.868.868,0,1,1,0-1.735h12.044a.868.868,0,1,1,0,1.735Z" transform="translate(-126.58 -195.313)" fill="#1f0098"/>
  <path id="Tracé_319" data-name="Tracé 319" d="M143.064,148.254H131.02a.868.868,0,1,1,0-1.735h12.044a.868.868,0,1,1,0,1.735Z" transform="translate(-126.58 -138.566)" fill="#1f0098"/>
</svg>
