<svg xmlns="http://www.w3.org/2000/svg" width="27.762" height="30.285" viewBox="0 0 27.762 30.285">
  <g id="Picto" transform="translate(-21.333)">
    <path id="Tracé_797" data-name="Tracé 797" d="M146.3,110.571H131.155A3.158,3.158,0,0,1,128,107.416V88.488a3.158,3.158,0,0,1,3.155-3.155H146.3a3.158,3.158,0,0,1,3.155,3.155v18.928A3.158,3.158,0,0,1,146.3,110.571ZM131.155,86.595a1.9,1.9,0,0,0-1.893,1.893v18.928a1.9,1.9,0,0,0,1.893,1.893H146.3a1.9,1.9,0,0,0,1.893-1.893V88.488a1.9,1.9,0,0,0-1.893-1.893Z" transform="translate(-100.358 -80.285)" fill="#1f0098"/>
    <path id="Tracé_798" data-name="Tracé 798" d="M25.75,26.5H24.488a3.158,3.158,0,0,1-3.155-3.155V3.155A3.158,3.158,0,0,1,24.488,0H39.631a3.158,3.158,0,0,1,3.155,3.155.631.631,0,1,1-1.262,0,1.9,1.9,0,0,0-1.893-1.893H24.488a1.9,1.9,0,0,0-1.893,1.893v20.19a1.9,1.9,0,0,0,1.893,1.893H25.75a.631.631,0,1,1,0,1.262Z" fill="#1f0098"/>
    <path id="Tracé_799" data-name="Tracé 799" d="M224.059,342.595h-10.1a.631.631,0,1,1,0-1.262h10.1a.631.631,0,0,1,0,1.262Z" transform="translate(-180.643 -321.143)" fill="#1f0098"/>
    <path id="Tracé_800" data-name="Tracé 800" d="M224.059,427.929h-10.1a.631.631,0,1,1,0-1.262h10.1a.631.631,0,0,1,0,1.262Z" transform="translate(-180.643 -401.429)" fill="#1f0098"/>
    <path id="Tracé_801" data-name="Tracé 801" d="M224.059,257.262h-10.1a.631.631,0,1,1,0-1.262h10.1a.631.631,0,0,1,0,1.262Z" transform="translate(-180.643 -240.857)" fill="#1f0098"/>
    <path id="Tracé_802" data-name="Tracé 802" d="M224.059,171.929h-10.1a.631.631,0,1,1,0-1.262h10.1a.631.631,0,0,1,0,1.262Z" transform="translate(-180.643 -160.572)" fill="#1f0098"/>
  </g>
</svg>
