<svg id="Groupe_800" data-name="Groupe 800" xmlns="http://www.w3.org/2000/svg" width="19" height="19" viewBox="0 0 19 19">
  <path id="Tracé_849" data-name="Tracé 849" d="M10.1,19H8.9a1.751,1.751,0,0,1-1.749-1.749v-.4a7.671,7.671,0,0,1-1.191-.494l-.286.286a1.749,1.749,0,0,1-2.474,0L2.361,15.8a1.749,1.749,0,0,1,0-2.474l.286-.286a7.671,7.671,0,0,1-.494-1.191h-.4A1.751,1.751,0,0,1,0,10.1V8.9A1.751,1.751,0,0,1,1.749,7.155h.4a7.673,7.673,0,0,1,.494-1.191l-.286-.286a1.749,1.749,0,0,1,0-2.474L3.2,2.361a1.749,1.749,0,0,1,2.474,0l.286.286a7.678,7.678,0,0,1,1.191-.494v-.4A1.751,1.751,0,0,1,8.9,0H10.1a1.751,1.751,0,0,1,1.749,1.749v.4a7.67,7.67,0,0,1,1.191.494l.286-.286a1.749,1.749,0,0,1,2.474,0l.843.843a1.749,1.749,0,0,1,0,2.474l-.286.286a7.671,7.671,0,0,1,.494,1.191h.4A1.751,1.751,0,0,1,19,8.9V10.1a1.751,1.751,0,0,1-1.749,1.749h-.4a7.673,7.673,0,0,1-.494,1.191l.286.286a1.749,1.749,0,0,1,0,2.474l-.843.843a1.749,1.749,0,0,1-2.474,0l-.286-.286a7.677,7.677,0,0,1-1.191.494v.4A1.751,1.751,0,0,1,10.1,19ZM6.15,15.184a6.561,6.561,0,0,0,1.7.706.557.557,0,0,1,.418.539v.822a.637.637,0,0,0,.636.636H10.1a.637.637,0,0,0,.636-.636v-.822a.557.557,0,0,1,.418-.539,6.561,6.561,0,0,0,1.7-.706.557.557,0,0,1,.677.086l.582.582a.636.636,0,0,0,.9,0l.843-.843a.636.636,0,0,0,0-.9l-.582-.582a.557.557,0,0,1-.086-.677,6.56,6.56,0,0,0,.706-1.7.557.557,0,0,1,.539-.418h.822a.637.637,0,0,0,.636-.636V8.9a.637.637,0,0,0-.636-.636h-.822a.557.557,0,0,1-.539-.418,6.561,6.561,0,0,0-.706-1.7.557.557,0,0,1,.086-.677l.582-.582a.636.636,0,0,0,0-.9l-.843-.843a.636.636,0,0,0-.9,0l-.582.582a.557.557,0,0,1-.677.086,6.561,6.561,0,0,0-1.7-.706.557.557,0,0,1-.418-.539V1.749a.637.637,0,0,0-.636-.636H8.9a.637.637,0,0,0-.636.636v.822a.557.557,0,0,1-.418.539,6.561,6.561,0,0,0-1.7.706.557.557,0,0,1-.677-.086l-.582-.582a.636.636,0,0,0-.9,0l-.843.843a.636.636,0,0,0,0,.9l.582.582a.557.557,0,0,1,.086.677,6.56,6.56,0,0,0-.706,1.7.557.557,0,0,1-.539.418H1.749a.637.637,0,0,0-.636.636V10.1a.637.637,0,0,0,.636.636h.822a.557.557,0,0,1,.539.418,6.561,6.561,0,0,0,.706,1.7.557.557,0,0,1-.086.677l-.582.582a.636.636,0,0,0,0,.9l.843.843a.636.636,0,0,0,.9,0l.582-.582a.559.559,0,0,1,.677-.085Z" fill="#0095D1"/>
  <path id="Tracé_850" data-name="Tracé 850" d="M148.734,152.868a4.134,4.134,0,1,1,4.134-4.134A4.139,4.139,0,0,1,148.734,152.868Zm0-7.155a3.021,3.021,0,1,0,3.021,3.021,3.024,3.024,0,0,0-3.021-3.021Z" transform="translate(-139.234 -139.234)" fill="#0095D1"/>
</svg>
